<?xml version="1.0" encoding="utf-8"?>
<!-- Generator: Adobe Illustrator 20.1.0, SVG Export Plug-In . SVG Version: 6.00 Build 0)  -->
<svg version="1.1" id="_x2014_ÎÓÈ_1" xmlns="http://www.w3.org/2000/svg" xmlns:xlink="http://www.w3.org/1999/xlink" x="0px"
	 y="0px" viewBox="0 0 1361.5 1005.9" style="enable-background:new 0 0 1361.5 1005.9;" xml:space="preserve">
<style type="text/css">
	.st0{fill:#000;}
	.st1{fill-rule:evenodd;clip-rule:evenodd;fill:#FFFFFF;}
	.st2{fill-rule:evenodd;clip-rule:evenodd;fill:#D3E189;}
	.st3{fill-rule:evenodd;clip-rule:evenodd;fill:#E6A5AA;}
	.st4{fill-rule:evenodd;clip-rule:evenodd;fill:#A1D5F8;}
</style>
<g>
	<path class="st0" d="M446.2,888.5c-0.1-12.4,5.6-24.2,17-35.6c11.9-11.9,23.6-17.8,35.2-17.7c6.7,0.1,12,2.2,15.9,6.2
		c4.6,4.6,6.9,9.9,6.8,15.8c0,9.5-3.3,19-10,28.7c-6,8.9-13.6,15.5-22.6,20.2c-6,3.1-12.2,4.6-18.5,4.5c-6.5,0-12.1-2.1-16.8-6.1
		C448.3,900.4,446,895.1,446.2,888.5L446.2,888.5z M461.9,893.8c0,2,0.4,3.9,1.2,5.7l1.6,2.5l2.3,1.5c0.9,0.5,2,0.7,3.2,0.6
		c12.4,0.1,22.9-11.9,31.6-36c2.2-6.2,3.4-11.6,3.4-16.1c0-6.4-3.4-9.8-10.1-10.3c-7.8,0-15.6,7.1-23.6,21.2
		C465,874.1,461.8,884.4,461.9,893.8L461.9,893.8z M564.5,865.7l10.9-15.1c7.5-10.1,14.3-15.2,20.7-15.4c3.9,0.1,7.1,1.5,9.8,4.2
		c2.7,2.7,4,5.9,3.9,9.5c-0.1,4.2-0.9,8.5-2.5,13l-4.7,12.2l-7.6,19.2l-0.8,3.2c0,2.6,1.2,3.9,3.6,3.9c1.4,0,3.1-0.7,5.1-2.1
		l7.4-5.9l10.2-9.3l2.6,1.8l0.2,0.8c0.1,2.3-4.7,7.4-14.1,15.1c-8.3,6.6-14.2,9.9-17.9,9.8c-7.7-0.1-11.5-3.4-11.3-10
		c0-3.6,1-8.2,3-13.7l4.7-13.3l4.7-13.3l3.2-8.9c0.6-1.7,0.9-3.3,1-4.8c0-2.7-1.4-4.3-4.2-4.8c-2.9,0.1-6,2.3-9.4,6.5l-7.4,10
		l-12.4,18c-3.7,5.4-7.1,11.4-10.3,18c-2.3,4.8-4.4,8.7-6.4,11.5c-0.7,1.2-1.5,2-2.4,2.3l-2.9,0.5h-7.5l-1.1-1.1l17.3-63.5l0.8-2.7
		c0.4-0.9,0.9-1.6,1.5-2.1l13.6-3.8l1.5,1.6l-12.6,42.5L564.5,865.7L564.5,865.7z M662.1,836l3.1-0.8c1.5,0.4,2.3,1.3,2.3,2.9
		l-0.5,2.3l-17,52.4l-0.5,3.4c0.3,3,1.4,4.4,3.3,4.2l1.2-0.2c1.1-0.5,2.3-1.3,3.7-2.4l7.2-7l10.3-11.1l1.8,0.9l1.1,1.6
		c0,0.6-0.4,1.3-1.1,2.1c-3,3.7-6.2,7.2-9.7,10.8c-4.1,4.3-7.9,7.9-11.5,10.6c-4,3.3-8,4.9-12.1,4.8c-12.8,0-11.4-13.1-8.9-21.7
		l4.3-14.5l9.6-30.9c0.4-1.4,1-2.6,2-3.4c0.9-0.8,2.1-1.5,3.6-2L662.1,836L662.1,836z M672.9,790.4c7.1,0.3,10.9,4.2,11.2,11.6
		c-0.3,7.3-4.1,11.1-11.3,11.3c-7.5-0.3-11.4-4.1-11.6-11.3C661.6,794.7,665.5,790.8,672.9,790.4L672.9,790.4z M698.3,871l-3.3,3.2
		c-0.9,1-1.7,1.5-2.3,1.5l-1.8-0.9c-0.5-0.4-0.7-1-0.6-1.8l0.6-1.8l27.3-29.9l1.7-3.3l2.2-5.6c2.6-7.3,6.9-10.9,12.7-11
		c4.2,0.2,6.2,2.2,6.1,6l-0.5,2.6c-0.7,1.4-1.7,2.7-2.9,3.8l-3.5,3.3l-4.9,5l3.2,5.9l3.2,6.5c1.5,3.6,2.8,7.5,3.8,11.5
		c1,4.1,1.5,7.9,1.5,11.4c0,3.8-0.7,7.6-2.1,11.4c-4.8,14.5-16.2,21.8-33.9,21.8c-5.4,0.1-9.9-0.8-13.7-2.7
		c-5.7-2.9-8.5-6.3-8.4-10.2l0.3-1.8c1.4-2.7,3.8-4.1,7.1-4.1c4.2,0,8.1,1.9,11.6,5.7l4.4,4.3c1.7,1.7,3.9,2.5,6.5,2.4
		c6.9-0.3,11-5.5,12.2-15.7l0.3-6.8c0-5.3-0.4-10.7-1.4-16l-2.5-11.2l-1.6-5.9h0.1L698.3,871L698.3,871z M787.8,864.3
		c15.2-19.4,26.4-29.1,33.7-29.1c9-0.1,13.7,5.7,14.1,17.5c-0.4,5-1.3,9.9-2.8,14.6l-5.3,12.8l-9.1,19.7l0.3,2.1
		c0.7,1.7,2.2,2.5,4.5,2.3c4.3,0.1,11.1-4.5,20.3-13.7l4.7-4.6l1.6-1.1c1.2,0,1.9,0.7,2,2.1c0,1.1-0.5,2.2-1.5,3.3l-7,7.2
		c-9.2,8.9-17.9,13.3-25.9,13.3c-8.2-0.2-12.4-4.4-12.6-12.5c0-4.4,1.7-10.8,5-19l8.3-20.1l3.4-7.4c0.7-1.8,1.1-3.6,1.2-5.3
		c-0.1-3-1.5-4.6-4.4-4.7c-1.6-0.1-3.2,0.5-4.8,1.6L809,847c-3.6,3.3-7.4,7.6-11.5,12.9c-6.4,8-11.1,14.5-14.2,19.5
		c-3.3,5.5-6.4,11.1-9.1,17c-1.7,3.7-3.2,6.7-4.7,9.1c-0.8,1.4-1.7,2.3-2.6,2.6c-0.8,0.4-2.2,0.6-4.1,0.5h-6.8c-1.5,0-2.2-0.7-2.1-2
		l0.9-3.9L808.6,711l1.2-3.7c0.5-1.2,1.4-2.4,2.6-3.4l3.2-2l10.3-3.8c1.8-0.7,3.2-1.1,4.2-1.1l1.5,1.8l-53.7,178.9L787.8,864.3
		L787.8,864.3z M889.5,865c4.9-6.6,9.9-12.5,15-17.6c7.7-7.8,16.1-11.9,25.2-12.2c9.4,0.2,14,5,14,14.3c0.1,11.7-8.9,22.1-26.8,31.2
		l-7.2,3.5l3.1,3.1c2.9,2.8,6.1,5.4,9.7,7.8l7.1,5l1.3,1.5l-1.7,2.7l-4.2,4.4c-1.3,1.1-2.5,1.7-3.5,1.8c-2.4,0-6.7-3.1-13.1-9.2
		l-10.6-10.2c-1-1-1.5-2-1.5-2.8c0-0.6,0.4-1.3,1.1-2l1.8-1.2c3.5-1.9,7.3-4.6,11.4-8c3.7-2.9,6.7-5.9,9.2-8.9
		c5.2-6,7.9-11.7,8-17.2c0.1-3.8-1.6-5.7-5.3-5.6c-5.5,0-13.6,5.8-24.4,17.5c-6.8,7.3-12.7,15.4-17.8,24.6
		c-2.8,5.1-4.9,9.4-6.1,12.9l-1.5,4.4c-0.6,1.8-1.3,2.8-2,3.2c-0.5,0.4-1.6,0.6-3.2,0.5h-6.6l-3.1-0.3l-0.9-1.2l55.5-196.7l0.9-3
		c0.5-1.4,1.2-2.5,2.3-3.1l2.4-1.2l13.6-5.7l1.2,2l-53.1,179.4L889.5,865L889.5,865z M986.8,836l3.1-0.8c1.5,0.4,2.3,1.3,2.3,2.9
		l-0.5,2.3l-17,52.4l-0.5,3.4c0.3,3,1.4,4.4,3.3,4.2l1.2-0.2c1.1-0.5,2.3-1.3,3.7-2.4l7.2-7l10.3-11.1l1.8,0.9l1.1,1.6
		c0,0.6-0.4,1.3-1.1,2.1c-3,3.7-6.2,7.2-9.7,10.8c-4.1,4.3-7.9,7.9-11.5,10.6c-4,3.3-8,4.9-12.1,4.8c-12.8,0-11.4-13.1-8.9-21.7
		l4.3-14.5l9.6-30.9c0.4-1.4,1-2.6,2-3.4c0.9-0.8,2.1-1.5,3.6-2L986.8,836L986.8,836z M997.6,790.4c7.1,0.3,10.9,4.2,11.2,11.6
		c-0.3,7.3-4.1,11.1-11.3,11.3c-7.5-0.3-11.4-4.1-11.6-11.3C986.4,794.7,990.2,790.8,997.6,790.4L997.6,790.4z M1032.6,885.6
		c7.8,0.6,12,4.8,12.6,12.7c-0.6,7.8-4.9,12-12.7,12.7c-7.8-0.6-12-4.8-12.6-12.7C1020.6,890.4,1024.8,886.2,1032.6,885.6
		L1032.6,885.6z M1099.3,869.8l8.5-14.5c7.8-13.3,14.7-20,20.7-20.1c5.7,0.3,8.5,5.7,8.3,16.1l-0.3,6.8c-0.2,2.3-0.6,4-1,5.1
		l-4.4,4.1l-7.1,4.4c-1.3,0.9-2.3,1.3-2.9,1.2l-1.2-1.3l1.2-4l2.1-6c0.8-2.3,1.3-4.4,1.4-6.1l0-1.8l-0.9-2.6l-1.3-0.5l-1.5,0.5
		c-4.3,3.3-10.4,11.8-18.1,25.5c-5.3,9.2-9,16.6-11.2,22.2l-3.1,7.3l-0.8,1.3c-0.6,0.7-1.2,1-1.8,0.9h-2.7l-8.3-0.3l-1.2-1.6
		l9.3-32.7l4.1-18.3l1.7-9.2c0.1-1.8,0.4-3.1,0.9-3.8c0.3-0.7,1-1.3,2.3-1.9l3.3-1.3l11-4.1l1.3,1.3l-13.4,41.5L1099.3,869.8
		L1099.3,869.8z M1198.3,870l-6.4,10.2c-12.5,20.4-23.2,30.6-32.3,30.4c-3.8,0.1-6.8-1.2-8.9-3.9c-2.1-2.7-3.1-5.7-3-8.9
		c-0.1-4,0.7-9.3,2.5-15.8l4.7-18.8l5.9-19.2l1.5-4.1c0.5-0.9,1.7-1.6,3.7-2.1l7.1-2.1l2.4-0.5c0.5,0,1,0.2,1.4,0.6l0.1,2.8
		l-7.1,22.1l-9,29.4c-1.2,3.7-1.8,6.9-1.7,9.5c0,2.4,1.4,3.9,4.2,4.4l2.4-0.5c2-0.9,4.2-2.7,6.5-5.3l7.7-9.4
		c3.4-4.6,6.9-9.9,10.6-15.8l12.2-21.6l6.8-12.4l1.8-1.3l9.4-0.5l2.6,0.5l1,0.9l-0.2,3.8l-14.9,47.9l-0.6,4.2c0,4,1.5,5.9,4.4,5.8
		c1.3-0.1,2.8-0.7,4.5-1.9l7.3-5.9l5.7-5c1.1-1,2.1-1.6,2.9-1.7l2.1,2.1c-0.1,0.8-0.7,1.8-1.7,2.9l-5.9,5.8l-7.7,6.8
		c-6,4.8-11,7.2-15,7.1c-6.8,0.1-10.3-4.1-10.4-12.5c-0.1-3.2,0.5-7.3,1.8-12.3l3.5-13l3.7-11.9L1198.3,870z"/>
	<path class="st0" d="M448.7,791.5c8.6,34.1-0.2,62.5-26.3,85.1c-25.5,22-61,33.1-106.4,33.1c-17.1,0-40.6-2.8-70.7-8.5
		c-30.1-5.7-57.1-8.5-81-8.5c-14,0-25.6,4.6-34.8,13.8c-1.2,0.6-2.3,0.4-3.3-0.6c-1-1-1.4-2.2-1.2-3.7c2.5-4.4,7.9-9.1,16-14.1
		c11.6-7.1,24.6-10.6,39-10.6c17.2,0,45,3.6,83.4,10.9c38.3,7.3,65.2,10.9,80.5,10.9c26.8,0,49.1-9.1,66.7-27.3
		c19.6-20.5,25.6-45.9,17.9-76.3c-5.4-21.6-19.5-40.1-42.1-55.4c-3.7,6.7-9,21.6-15.8,44.6c-7.4,25.3-13.6,43.2-18.4,53.8
		c16-6.5,32.8-17,50.5-31.3c2.8-1,4.6-0.2,5.2,2.3c0.1,0.6,0.1,1.2-0.1,2c-14.3,15.5-34.8,28.6-61.5,39.1
		c-2.9,6.7-7.5,13.8-13.6,21.3c-6.8,8.6-13.1,14.2-18.8,16.7c-2.3,1-3.6,0.5-4.1-1.4c-0.3-1.1,0.2-2.2,1.5-3.2
		c7.9-5.4,14.1-14.5,18.7-27.3c-24,7.5-48.9,11.2-74.8,11.2c-33.9,0-63.3-7.1-88.1-21.3c-25.7-14.6-41.6-33.9-47.6-57.9
		c-6-24,5.8-45.9,35.5-65.9c29.1-19.8,63.5-29.7,102.9-29.7c50.8,0,94.3,9.7,130.6,29c9.2-7.7,17.1-12,23.8-12.9
		c0.8,0.2,1.3,0.8,1.6,1.7c0,1-0.2,1.7-0.9,2.3c-5,2.9-10.5,7.4-16.4,13.5C424.7,743.7,442.1,765.2,448.7,791.5L448.7,791.5z
		 M376.4,733.8c-33.9-19.6-75.3-29.4-124.4-29.4c-39.9,0-72.3,9.2-97.4,27.6C131.2,749.3,122,768,127,787.9
		c5,19.8,20.2,35.6,45.6,47.5c24.7,11.5,54.4,17.3,88.9,17.3c28.9,0,53-2.6,72.2-7.8c5.5-19.4,11-38.9,16.6-58.5
		C357.4,764.6,366.1,747,376.4,733.8L376.4,733.8z M469.2,878.7c-0.4-3.8-0.4-7.6,0-11.3V878.7z"/>
</g>
<g>
	<g>
		<circle class="st1" cx="965.8" cy="597.3" r="10"/>
		<circle class="st1" cx="1193.1" cy="370" r="10"/>
		<circle class="st1" cx="965.8" cy="142.7" r="10"/>
		<circle class="st1" cx="933.5" cy="145" r="10"/>
		<circle class="st1" cx="901.8" cy="151.9" r="10"/>
		<circle class="st1" cx="871.4" cy="163.2" r="10"/>
		<circle class="st1" cx="842.9" cy="178.8" r="10"/>
		<circle class="st1" cx="817" cy="198.2" r="10"/>
		<circle class="st1" cx="901.8" cy="588.1" r="10"/>
		<circle class="st1" cx="933.5" cy="595" r="10"/>
		<circle class="st1" cx="998.2" cy="595" r="10"/>
		<circle class="st1" cx="1029.9" cy="588.1" r="10"/>
		<circle class="st1" cx="1060.3" cy="576.8" r="10"/>
		<circle class="st1" cx="1088.7" cy="561.2" r="10"/>
		<circle class="st1" cx="1114.7" cy="541.8" r="10"/>
		<circle class="st1" cx="1137.6" cy="518.9" r="10"/>
		<circle class="st1" cx="1157" cy="492.9" r="10"/>
		<circle class="st1" cx="1172.6" cy="464.5" r="10"/>
		<circle class="st1" cx="1184" cy="434.1" r="10"/>
		<circle class="st1" cx="1190.8" cy="402.4" r="10"/>
		<circle class="st1" cx="1190.8" cy="337.7" r="10"/>
		<circle class="st1" cx="1184" cy="306" r="10"/>
		<circle class="st1" cx="1172.6" cy="275.6" r="10"/>
		<circle class="st1" cx="1157" cy="247.1" r="10"/>
		<circle class="st1" cx="1137.6" cy="221.2" r="10"/>
		<circle class="st1" cx="1114.7" cy="198.2" r="10"/>
		<circle class="st1" cx="1088.7" cy="178.8" r="10"/>
		<circle class="st1" cx="1060.3" cy="163.2" r="10"/>
		<circle class="st1" cx="1029.9" cy="151.9" r="10"/>
		<circle class="st1" cx="998.2" cy="145" r="10"/>
	</g>
	<g>
		<circle class="st1" cx="385.6" cy="584.4" r="8.6"/>
		<circle class="st1" cx="385.6" cy="184.7" r="8.6"/>
		<circle class="st1" cx="409.2" cy="167.7" r="8.6"/>
		<circle class="st1" cx="435.1" cy="154.8" r="8.6"/>
		<circle class="st1" cx="463.2" cy="147.9" r="8.6"/>
		<circle class="st1" cx="492.1" cy="148" r="8.6"/>
		<circle class="st1" cx="520.2" cy="154.8" r="8.6"/>
		<circle class="st1" cx="546" cy="167.9" r="8.6"/>
		<circle class="st1" cx="568.5" cy="186.1" r="8.6"/>
		<circle class="st1" cx="466.9" cy="501.6" r="8.6"/>
		<circle class="st1" cx="446.5" cy="522.3" r="8.6"/>
		<circle class="st1" cx="426.2" cy="543" r="8.6"/>
		<circle class="st1" cx="405.9" cy="563.7" r="8.6"/>
		<circle class="st1" cx="361.9" cy="167.7" r="8.6"/>
		<circle class="st1" cx="336" cy="154.8" r="8.6"/>
		<circle class="st1" cx="307.9" cy="147.9" r="8.6"/>
		<circle class="st1" cx="279" cy="148" r="8.6"/>
		<circle class="st1" cx="250.9" cy="154.8" r="8.6"/>
		<circle class="st1" cx="225.1" cy="167.9" r="8.6"/>
		<circle class="st1" cx="202.6" cy="186.1" r="8.6"/>
		<circle class="st1" cx="184.4" cy="208.6" r="8.6"/>
		<circle class="st1" cx="171.1" cy="234.4" r="8.6"/>
		<circle class="st1" cx="163.3" cy="262.3" r="8.6"/>
		<circle class="st1" cx="161.4" cy="291.2" r="8.6"/>
		<circle class="st1" cx="165.2" cy="319.9" r="8.6"/>
		<circle class="st1" cx="174.1" cy="347.5" r="8.6"/>
		<circle class="st1" cx="187.2" cy="373.3" r="8.6"/>
		<circle class="st1" cx="203.8" cy="397.1" r="8.6"/>
		<circle class="st1" cx="223" cy="418.8" r="8.6"/>
		<circle class="st1" cx="243.3" cy="439.5" r="8.6"/>
		<circle class="st1" cx="263.6" cy="460.2" r="8.6"/>
		<circle class="st1" cx="283.9" cy="480.9" r="8.6"/>
		<circle class="st1" cx="304.2" cy="501.6" r="8.6"/>
		<circle class="st1" cx="324.6" cy="522.3" r="8.6"/>
		<circle class="st1" cx="344.9" cy="543" r="8.6"/>
		<circle class="st1" cx="365.2" cy="563.7" r="8.6"/>
	</g>
	<g>
		<circle class="st1" cx="651.1" cy="582.7" r="10.2"/>
		<circle class="st1" cx="618.1" cy="592.5" r="10.2"/>
		<circle class="st1" cx="585.2" cy="602.5" r="10.2"/>
		<circle class="st1" cx="552.1" cy="612.1" r="10.2"/>
		<circle class="st1" cx="518.4" cy="619.1" r="10.2"/>
		<circle class="st1" cx="514.7" cy="585" r="10.2"/>
		<circle class="st1" cx="513.7" cy="550.5" r="10.2"/>
		<circle class="st1" cx="512.9" cy="516.1" r="10.2"/>
		<circle class="st1" cx="512.1" cy="481.7" r="10.2"/>
		<circle class="st1" cx="510.7" cy="447.3" r="10.2"/>
		<circle class="st1" cx="491.6" cy="418.6" r="10.2"/>
		<circle class="st1" cx="472" cy="390.3" r="10.2"/>
		<circle class="st1" cx="452.4" cy="362" r="10.2"/>
		<circle class="st1" cx="433" cy="333.5" r="10.2"/>
		<circle class="st1" cx="415.9" cy="303.7" r="10.2"/>
		<circle class="st1" cx="447.3" cy="289.5" r="10.2"/>
		<circle class="st1" cx="479.7" cy="277.9" r="10.2"/>
		<circle class="st1" cx="512.2" cy="266.6" r="10.2"/>
		<circle class="st1" cx="544.7" cy="255.1" r="10.2"/>
		<circle class="st1" cx="577" cy="243.2" r="10.2"/>
		<circle class="st1" cx="598.3" cy="216.2" r="10.2"/>
		<circle class="st1" cx="619.3" cy="188.8" r="10.2"/>
		<circle class="st1" cx="640.1" cy="161.4" r="10.2"/>
		<circle class="st1" cx="661.2" cy="134.1" r="10.2"/>
		<circle class="st1" cx="684.3" cy="108.7" r="10.2"/>
		<circle class="st1" cx="715.2" cy="582.7" r="10.2"/>
		<circle class="st1" cx="748.2" cy="592.5" r="10.2"/>
		<circle class="st1" cx="781.1" cy="602.5" r="10.2"/>
		<circle class="st1" cx="814.2" cy="612.1" r="10.2"/>
		<circle class="st1" cx="847.9" cy="619.1" r="10.2"/>
		<circle class="st1" cx="851.6" cy="585" r="10.2"/>
		<circle class="st1" cx="852.6" cy="550.5" r="10.2"/>
		<circle class="st1" cx="853.4" cy="516.1" r="10.2"/>
		<circle class="st1" cx="854.2" cy="481.7" r="10.2"/>
		<circle class="st1" cx="855.6" cy="447.3" r="10.2"/>
		<circle class="st1" cx="874.7" cy="418.6" r="10.2"/>
		<circle class="st1" cx="894.3" cy="390.3" r="10.2"/>
		<circle class="st1" cx="913.9" cy="362" r="10.2"/>
		<circle class="st1" cx="933.3" cy="333.5" r="10.2"/>
		<circle class="st1" cx="950.4" cy="303.7" r="10.2"/>
		<circle class="st1" cx="919" cy="289.5" r="10.2"/>
		<circle class="st1" cx="886.6" cy="277.9" r="10.2"/>
		<circle class="st1" cx="854.1" cy="266.6" r="10.2"/>
		<circle class="st1" cx="821.6" cy="255.1" r="10.2"/>
		<circle class="st1" cx="789.3" cy="243.2" r="10.2"/>
		<circle class="st1" cx="768" cy="216.2" r="10.2"/>
		<circle class="st1" cx="747" cy="188.8" r="10.2"/>
		<circle class="st1" cx="726.2" cy="161.4" r="10.2"/>
		<circle class="st1" cx="705.1" cy="134.1" r="10.2"/>
		<circle class="st1" cx="684.3" cy="575.1" r="10.2"/>
	</g>
	<g>
		<circle class="st2" cx="965.8" cy="370" r="249.4"/>
		<g>
			<circle class="st1" cx="965.8" cy="597.3" r="10"/>
			<circle class="st1" cx="1193.1" cy="370" r="10"/>
			<circle class="st1" cx="965.8" cy="142.7" r="10"/>
			<circle class="st1" cx="933.5" cy="145" r="10"/>
			<circle class="st1" cx="901.8" cy="151.9" r="10"/>
			<circle class="st1" cx="871.4" cy="163.2" r="10"/>
			<circle class="st1" cx="842.9" cy="178.8" r="10"/>
			<circle class="st1" cx="817" cy="198.2" r="10"/>
			<circle class="st1" cx="901.8" cy="588.1" r="10"/>
			<circle class="st1" cx="933.5" cy="595" r="10"/>
			<circle class="st1" cx="998.2" cy="595" r="10"/>
			<circle class="st1" cx="1029.9" cy="588.1" r="10"/>
			<circle class="st1" cx="1060.3" cy="576.8" r="10"/>
			<circle class="st1" cx="1088.7" cy="561.2" r="10"/>
			<circle class="st1" cx="1114.7" cy="541.8" r="10"/>
			<circle class="st1" cx="1137.6" cy="518.9" r="10"/>
			<circle class="st1" cx="1157" cy="492.9" r="10"/>
			<circle class="st1" cx="1172.6" cy="464.5" r="10"/>
			<circle class="st1" cx="1184" cy="434.1" r="10"/>
			<circle class="st1" cx="1190.8" cy="402.4" r="10"/>
			<circle class="st1" cx="1190.8" cy="337.7" r="10"/>
			<circle class="st1" cx="1184" cy="306" r="10"/>
			<circle class="st1" cx="1172.6" cy="275.6" r="10"/>
			<circle class="st1" cx="1157" cy="247.1" r="10"/>
			<circle class="st1" cx="1137.6" cy="221.2" r="10"/>
			<circle class="st1" cx="1114.7" cy="198.2" r="10"/>
			<circle class="st1" cx="1088.7" cy="178.8" r="10"/>
			<circle class="st1" cx="1060.3" cy="163.2" r="10"/>
			<circle class="st1" cx="1029.9" cy="151.9" r="10"/>
			<circle class="st1" cx="998.2" cy="145" r="10"/>
		</g>
	</g>
	<g>
		<path class="st3" d="M385.6,154.2c21.4-15.9,45.9-26.7,72.5-30.4c24.8-3.4,50-0.1,73.3,9c50.2,19.7,87.3,64.6,99,117
			c6.5,29.2,4.8,59.2-3.8,87.8c-10.5,35-30.8,66.2-55.5,92.8l0,0l-185.4,189l-185.4-189c-24.7-26.6-45-57.8-55.5-92.8
			c-8.6-28.6-10.3-58.6-3.8-87.8c11.7-52.4,48.8-97.3,99-117c23.2-9.1,48.5-12.4,73.3-9C339.7,127.4,364.2,138.3,385.6,154.2z"/>
		<g>
			<circle class="st1" cx="385.6" cy="584.4" r="8.6"/>
			<circle class="st1" cx="385.6" cy="184.7" r="8.6"/>
			<circle class="st1" cx="409.2" cy="167.7" r="8.6"/>
			<circle class="st1" cx="435.1" cy="154.8" r="8.6"/>
			<circle class="st1" cx="463.2" cy="147.9" r="8.6"/>
			<circle class="st1" cx="492.1" cy="148" r="8.6"/>
			<circle class="st1" cx="520.2" cy="154.8" r="8.6"/>
			<circle class="st1" cx="546" cy="167.9" r="8.6"/>
			<circle class="st1" cx="568.5" cy="186.1" r="8.6"/>
			<circle class="st1" cx="466.9" cy="501.6" r="8.6"/>
			<circle class="st1" cx="446.5" cy="522.3" r="8.6"/>
			<circle class="st1" cx="426.2" cy="543" r="8.6"/>
			<circle class="st1" cx="405.9" cy="563.7" r="8.6"/>
			<circle class="st1" cx="361.9" cy="167.7" r="8.6"/>
			<circle class="st1" cx="336" cy="154.8" r="8.6"/>
			<circle class="st1" cx="307.9" cy="147.9" r="8.6"/>
			<circle class="st1" cx="279" cy="148" r="8.6"/>
			<circle class="st1" cx="250.9" cy="154.8" r="8.6"/>
			<circle class="st1" cx="225.1" cy="167.9" r="8.6"/>
			<circle class="st1" cx="202.6" cy="186.1" r="8.6"/>
			<circle class="st1" cx="184.4" cy="208.6" r="8.6"/>
			<circle class="st1" cx="171.1" cy="234.4" r="8.6"/>
			<circle class="st1" cx="163.3" cy="262.3" r="8.6"/>
			<circle class="st1" cx="161.4" cy="291.2" r="8.6"/>
			<circle class="st1" cx="165.2" cy="319.9" r="8.6"/>
			<circle class="st1" cx="174.1" cy="347.5" r="8.6"/>
			<circle class="st1" cx="187.2" cy="373.3" r="8.6"/>
			<circle class="st1" cx="203.8" cy="397.1" r="8.6"/>
			<circle class="st1" cx="223" cy="418.8" r="8.6"/>
			<circle class="st1" cx="243.3" cy="439.5" r="8.6"/>
			<circle class="st1" cx="263.6" cy="460.2" r="8.6"/>
			<circle class="st1" cx="283.9" cy="480.9" r="8.6"/>
			<circle class="st1" cx="304.2" cy="501.6" r="8.6"/>
			<circle class="st1" cx="324.6" cy="522.3" r="8.6"/>
			<circle class="st1" cx="344.9" cy="543" r="8.6"/>
			<circle class="st1" cx="365.2" cy="563.7" r="8.6"/>
		</g>
	</g>
	<g>
		<path class="st4" d="M809.3,218.8c224,84.2,209,37.9,77.3,237.8C875.6,695.7,915.1,667,684.3,603.5
			C453.5,667,492.9,695.7,482,456.6c-131.7-199.8-146.8-153.5,77.3-237.8C708.6,31.8,659.9,31.8,809.3,218.8z"/>
		<g>
			<circle class="st1" cx="651.1" cy="582.7" r="10.2"/>
			<circle class="st1" cx="618.1" cy="592.5" r="10.2"/>
			<circle class="st1" cx="585.2" cy="602.5" r="10.2"/>
			<circle class="st1" cx="552.1" cy="612.1" r="10.2"/>
			<circle class="st1" cx="518.4" cy="619.1" r="10.2"/>
			<circle class="st1" cx="514.7" cy="585" r="10.2"/>
			<circle class="st1" cx="513.7" cy="550.5" r="10.2"/>
			<circle class="st1" cx="512.9" cy="516.1" r="10.2"/>
			<circle class="st1" cx="512.1" cy="481.7" r="10.2"/>
			<circle class="st1" cx="510.7" cy="447.3" r="10.2"/>
			<circle class="st1" cx="491.6" cy="418.6" r="10.2"/>
			<circle class="st1" cx="472" cy="390.3" r="10.2"/>
			<circle class="st1" cx="452.4" cy="362" r="10.2"/>
			<circle class="st1" cx="433" cy="333.5" r="10.2"/>
			<circle class="st1" cx="415.9" cy="303.7" r="10.2"/>
			<circle class="st1" cx="447.3" cy="289.5" r="10.2"/>
			<circle class="st1" cx="479.7" cy="277.9" r="10.2"/>
			<circle class="st1" cx="512.2" cy="266.6" r="10.2"/>
			<circle class="st1" cx="544.7" cy="255.1" r="10.2"/>
			<circle class="st1" cx="577" cy="243.2" r="10.2"/>
			<circle class="st1" cx="598.3" cy="216.2" r="10.2"/>
			<circle class="st1" cx="619.3" cy="188.8" r="10.2"/>
			<circle class="st1" cx="640.1" cy="161.4" r="10.2"/>
			<circle class="st1" cx="661.2" cy="134.1" r="10.2"/>
			<circle class="st1" cx="684.3" cy="108.7" r="10.2"/>
			<circle class="st1" cx="715.2" cy="582.7" r="10.2"/>
			<circle class="st1" cx="748.2" cy="592.5" r="10.2"/>
			<circle class="st1" cx="781.1" cy="602.5" r="10.2"/>
			<circle class="st1" cx="814.2" cy="612.1" r="10.2"/>
			<circle class="st1" cx="847.9" cy="619.1" r="10.2"/>
			<circle class="st1" cx="851.6" cy="585" r="10.2"/>
			<circle class="st1" cx="852.6" cy="550.5" r="10.2"/>
			<circle class="st1" cx="853.4" cy="516.1" r="10.2"/>
			<circle class="st1" cx="854.2" cy="481.7" r="10.2"/>
			<circle class="st1" cx="855.6" cy="447.3" r="10.2"/>
			<circle class="st1" cx="874.7" cy="418.6" r="10.2"/>
			<circle class="st1" cx="894.3" cy="390.3" r="10.2"/>
			<circle class="st1" cx="913.9" cy="362" r="10.2"/>
			<circle class="st1" cx="933.3" cy="333.5" r="10.2"/>
			<circle class="st1" cx="950.4" cy="303.7" r="10.2"/>
			<circle class="st1" cx="919" cy="289.5" r="10.2"/>
			<circle class="st1" cx="886.6" cy="277.9" r="10.2"/>
			<circle class="st1" cx="854.1" cy="266.6" r="10.2"/>
			<circle class="st1" cx="821.6" cy="255.1" r="10.2"/>
			<circle class="st1" cx="789.3" cy="243.2" r="10.2"/>
			<circle class="st1" cx="768" cy="216.2" r="10.2"/>
			<circle class="st1" cx="747" cy="188.8" r="10.2"/>
			<circle class="st1" cx="726.2" cy="161.4" r="10.2"/>
			<circle class="st1" cx="705.1" cy="134.1" r="10.2"/>
			<circle class="st1" cx="684.3" cy="575.1" r="10.2"/>
		</g>
	</g>
</g>
</svg>
