<?xml version="1.0" encoding="utf-8"?>
<!-- Generator: Adobe Illustrator 20.1.0, SVG Export Plug-In . SVG Version: 6.00 Build 0)  -->
<svg version="1.1" id="logo_x5F_black_xA0_Image_1_"
	 xmlns="http://www.w3.org/2000/svg" xmlns:xlink="http://www.w3.org/1999/xlink" x="0px" y="0px" viewBox="0 0 645.1 102.8"
	 style="enable-background:new 0 0 645.1 102.8;" xml:space="preserve">
<style type="text/css">
	.st0{stroke:#000000;stroke-miterlimit:10;}
	.st1{fill:#FFFFFF;}
	.st2{fill:#D3E189;}
	.st3{fill:#E6A5AA;}
	.st4{fill:#A1D5F8;}
</style>
<g>
	<path class="st0" d="M312.7,85c0-5,2.3-9.7,6.8-14.3c4.8-4.8,9.5-7.2,14.2-7.1c2.7,0,4.8,0.9,6.4,2.5c1.9,1.9,2.8,4,2.7,6.4
		c0,3.8-1.3,7.6-4,11.6c-2.4,3.6-5.5,6.2-9.1,8.1c-2.4,1.2-4.9,1.9-7.4,1.8c-2.6,0-4.9-0.8-6.8-2.5C313.6,89.8,312.7,87.6,312.7,85
		L312.7,85z M319,87.1c0,0.8,0.2,1.6,0.5,2.3l0.6,1L321,91c0.4,0.2,0.8,0.3,1.3,0.2c5,0,9.2-4.8,12.7-14.5c0.9-2.5,1.4-4.7,1.4-6.5
		c0-2.6-1.4-3.9-4.1-4.1c-3.1,0-6.3,2.9-9.5,8.5C320.3,79.2,319,83.4,319,87.1L319,87.1z M360.3,75.8l4.4-6.1c3-4.1,5.8-6.1,8.3-6.2
		c1.6,0,2.9,0.6,3.9,1.7c1.1,1.1,1.6,2.4,1.6,3.8c0,1.7-0.4,3.4-1,5.2l-1.9,4.9l-3.1,7.7l-0.3,1.3c0,1,0.5,1.6,1.4,1.6
		c0.6,0,1.2-0.3,2.1-0.8l3-2.4l4.1-3.7l1,0.7l0.1,0.3c0,0.9-1.9,3-5.7,6.1c-3.3,2.7-5.7,4-7.2,3.9c-3.1,0-4.6-1.4-4.5-4
		c0-1.4,0.4-3.3,1.2-5.5l1.9-5.4l1.9-5.4l1.3-3.6c0.2-0.7,0.4-1.3,0.4-1.9c0-1.1-0.6-1.7-1.7-1.9c-1.2,0-2.4,0.9-3.8,2.6l-3,4
		l-5,7.2c-1.5,2.2-2.9,4.6-4.1,7.2c-0.9,1.9-1.8,3.5-2.6,4.6c-0.3,0.5-0.6,0.8-1,0.9l-1.2,0.2h-3l-0.4-0.4l7-25.6l0.3-1.1
		c0.2-0.4,0.4-0.6,0.6-0.8l5.5-1.5l0.6,0.6l-5.1,17.1L360.3,75.8L360.3,75.8z M399.6,63.9l1.2-0.3c0.6,0.2,0.9,0.5,0.9,1.2l-0.2,0.9
		l-6.8,21.1l-0.2,1.4c0.1,1.2,0.6,1.8,1.3,1.7l0.5-0.1c0.4-0.2,0.9-0.5,1.5-1l2.9-2.8l4.1-4.5l0.7,0.4l0.4,0.6
		c0,0.2-0.2,0.5-0.4,0.8c-1.2,1.5-2.5,2.9-3.9,4.3c-1.7,1.7-3.2,3.2-4.6,4.3c-1.6,1.3-3.2,2-4.9,1.9c-5.2,0-4.6-5.3-3.6-8.7l1.7-5.8
		l3.9-12.4c0.2-0.6,0.4-1,0.8-1.4c0.4-0.3,0.8-0.6,1.4-0.8L399.6,63.9L399.6,63.9z M404,45.5c2.9,0.1,4.4,1.7,4.5,4.7
		c-0.1,2.9-1.7,4.5-4.5,4.5c-3-0.1-4.6-1.7-4.7-4.5C399.5,47.2,401,45.7,404,45.5L404,45.5z M414.2,77.9l-1.3,1.3
		c-0.4,0.4-0.7,0.6-0.9,0.6l-0.7-0.4c-0.2-0.2-0.3-0.4-0.2-0.7l0.2-0.7l11-12l0.7-1.3l0.9-2.3c1-2.9,2.8-4.4,5.1-4.4
		c1.7,0.1,2.5,0.9,2.5,2.4l-0.2,1c-0.3,0.6-0.7,1.1-1.2,1.5l-1.4,1.3l-2,2l1.3,2.4l1.3,2.6c0.6,1.4,1.1,3,1.5,4.6
		c0.4,1.7,0.6,3.2,0.6,4.6c0,1.5-0.3,3.1-0.8,4.6c-1.9,5.8-6.5,8.8-13.6,8.8c-2.2,0-4-0.3-5.5-1.1c-2.3-1.2-3.4-2.5-3.4-4.1l0.1-0.7
		c0.6-1.1,1.5-1.7,2.9-1.7c1.7,0,3.3,0.8,4.7,2.3l1.8,1.7c0.7,0.7,1.6,1,2.6,1c2.8-0.1,4.4-2.2,4.9-6.3l0.1-2.7
		c0-2.1-0.2-4.3-0.6-6.4l-1-4.5l-0.6-2.4l0,0L414.2,77.9L414.2,77.9z M450.3,75.3c6.1-7.8,10.6-11.7,13.6-11.7c3.6,0,5.5,2.3,5.7,7
		c-0.2,2-0.5,4-1.1,5.9l-2.1,5.2l-3.7,7.9l0.1,0.8c0.3,0.7,0.9,1,1.8,0.9c1.7,0,4.5-1.8,8.2-5.5l1.9-1.9l0.6-0.4
		c0.5,0,0.8,0.3,0.8,0.8c0,0.4-0.2,0.9-0.6,1.3l-2.8,2.9c-3.7,3.6-7.2,5.4-10.4,5.4c-3.3-0.1-5-1.8-5.1-5c0-1.8,0.7-4.3,2-7.6
		l3.3-8.1l1.4-3c0.3-0.7,0.4-1.4,0.5-2.1c0-1.2-0.6-1.9-1.8-1.9c-0.6,0-1.3,0.2-1.9,0.6l-1.9,1.4c-1.4,1.3-3,3.1-4.6,5.2
		c-2.6,3.2-4.5,5.8-5.7,7.8c-1.3,2.2-2.6,4.5-3.7,6.8c-0.7,1.5-1.3,2.7-1.9,3.7c-0.3,0.6-0.7,0.9-1,1c-0.3,0.2-0.9,0.2-1.7,0.2h-2.7
		c-0.6,0-0.9-0.3-0.8-0.8l0.4-1.6l21.6-77.1l0.5-1.5c0.2-0.5,0.6-1,1-1.4l1.3-0.8l4.1-1.5c0.7-0.3,1.3-0.4,1.7-0.4l0.6,0.7l-21.6,72
		L450.3,75.3L450.3,75.3z M491.2,75.6c2-2.7,4-5,6-7.1c3.1-3.1,6.5-4.8,10.1-4.9c3.8,0.1,5.6,2,5.6,5.8c0,4.7-3.6,8.9-10.8,12.6
		l-2.9,1.4l1.2,1.2c1.2,1.1,2.5,2.2,3.9,3.1l2.9,2l0.5,0.6l-0.7,1.1l-1.7,1.8c-0.5,0.4-1,0.7-1.4,0.7c-1,0-2.7-1.2-5.3-3.7l-4.3-4.1
		c-0.4-0.4-0.6-0.8-0.6-1.1c0-0.2,0.2-0.5,0.4-0.8l0.7-0.5c1.4-0.8,2.9-1.9,4.6-3.2c1.5-1.2,2.7-2.4,3.7-3.6
		c2.1-2.4,3.2-4.7,3.2-6.9c0-1.5-0.6-2.3-2.1-2.3c-2.2,0-5.5,2.3-9.8,7c-2.7,2.9-5.1,6.2-7.2,9.9c-1.1,2.1-2,3.8-2.5,5.2l-0.6,1.8
		c-0.2,0.7-0.5,1.1-0.8,1.3c-0.2,0.2-0.6,0.2-1.3,0.2h-2.7l-1.2-0.1l-0.4-0.5L500,13.3l0.4-1.2c0.2-0.6,0.5-1,0.9-1.2l1-0.5l5.5-2.3
		l0.5,0.8l-21.4,72.2L491.2,75.6L491.2,75.6z M530.4,63.9l1.2-0.3c0.6,0.2,0.9,0.5,0.9,1.2l-0.2,0.9l-6.8,21.1l-0.2,1.4
		c0.1,1.2,0.6,1.8,1.3,1.7l0.5-0.1c0.4-0.2,0.9-0.5,1.5-1l2.9-2.8l4.1-4.5l0.7,0.4l0.4,0.6c0,0.2-0.2,0.5-0.4,0.8
		c-1.2,1.5-2.5,2.9-3.9,4.3c-1.7,1.7-3.2,3.2-4.6,4.3c-1.6,1.3-3.2,2-4.9,1.9c-5.2,0-4.6-5.3-3.6-8.7l1.7-5.8l3.9-12.4
		c0.2-0.6,0.4-1,0.8-1.4c0.4-0.3,0.8-0.6,1.4-0.8L530.4,63.9L530.4,63.9z M534.7,45.5c2.9,0.1,4.4,1.7,4.5,4.7
		c-0.1,2.9-1.7,4.5-4.5,4.5c-3-0.1-4.6-1.7-4.7-4.5C530.2,47.2,531.7,45.7,534.7,45.5L534.7,45.5z M548.8,83.8
		c3.1,0.2,4.8,1.9,5.1,5.1c-0.2,3.1-2,4.8-5.1,5.1c-3.1-0.2-4.8-1.9-5.1-5.1C543.9,85.8,545.6,84.1,548.8,83.8L548.8,83.8z
		 M575.6,77.5l3.4-5.8c3.1-5.4,5.9-8,8.3-8.1c2.3,0.1,3.4,2.3,3.3,6.5l-0.1,2.7c-0.1,0.9-0.2,1.6-0.4,2.1l-1.8,1.7l-2.9,1.8
		c-0.5,0.4-0.9,0.5-1.2,0.5l-0.5-0.5l0.5-1.6l0.8-2.4c0.3-0.9,0.5-1.8,0.6-2.5V71l-0.4-1l-0.5-0.2l-0.6,0.2
		c-1.7,1.3-4.2,4.7-7.3,10.3c-2.1,3.7-3.6,6.7-4.5,8.9l-1.2,2.9l-0.3,0.5c-0.2,0.3-0.5,0.4-0.7,0.4H569l-3.3-0.1l-0.5-0.6l3.7-13.2
		l1.7-7.4l0.7-3.7c0-0.7,0.2-1.2,0.4-1.5c0.1-0.3,0.4-0.5,0.9-0.8l1.3-0.5l4.4-1.7l0.5,0.5l-5.4,16.7L575.6,77.5L575.6,77.5z
		 M615.5,77.5l-2.6,4.1c-5,8.2-9.3,12.3-13,12.2c-1.5,0-2.7-0.5-3.6-1.6s-1.2-2.3-1.2-3.6c0-1.6,0.3-3.7,1-6.4l1.9-7.6l2.4-7.7
		l0.6-1.7c0.2-0.4,0.7-0.6,1.5-0.8l2.9-0.8l1-0.2c0.2,0,0.4,0.1,0.6,0.2v1.1l-2.9,8.9l-3.6,11.8c-0.5,1.5-0.7,2.8-0.7,3.8
		s0.6,1.6,1.7,1.8l1-0.2c0.8-0.4,1.7-1.1,2.6-2.1l3.1-3.8c1.4-1.9,2.8-4,4.3-6.4l4.9-8.7l2.7-5l0.7-0.5l3.8-0.2l1,0.2l0.4,0.4
		l-0.1,1.5l-6,19.3l-0.2,1.7c0,1.6,0.6,2.4,1.8,2.3c0.5,0,1.1-0.3,1.8-0.8l2.9-2.4l2.3-2c0.4-0.4,0.8-0.6,1.2-0.7l0.8,0.8
		c0,0.3-0.3,0.7-0.7,1.2l-2.4,2.3l-3.1,2.7c-2.4,1.9-4.4,2.9-6,2.9c-2.7,0-4.1-1.7-4.2-5c0-1.3,0.2-2.9,0.7-5l1.4-5.2l1.5-4.8
		L615.5,77.5z"/>
	<path class="st0" d="M313.7,45.9c3.5,13.7-0.1,25.2-10.6,34.3c-10.3,8.9-24.6,13.3-42.8,13.3c-6.9,0-16.3-1.1-28.5-3.4
		c-12.1-2.3-23-3.4-32.6-3.4c-5.6,0-10.3,1.9-14,5.6c-0.5,0.2-0.9,0.2-1.3-0.2c-0.4-0.4-0.6-0.9-0.5-1.5c1-1.8,3.2-3.7,6.4-5.7
		c4.7-2.9,9.9-4.3,15.7-4.3c6.9,0,18.1,1.4,33.6,4.4c15.4,2.9,26.2,4.4,32.4,4.4c10.8,0,19.8-3.7,26.8-11
		c7.9-8.3,10.3-18.5,7.2-30.7c-2.2-8.7-7.8-16.1-16.9-22.3c-1.5,2.7-3.6,8.7-6.4,18c-3,10.2-5.5,17.4-7.4,21.7
		c6.4-2.6,13.2-6.8,20.3-12.6c1.1-0.4,1.9-0.1,2.1,0.9c0,0.2,0,0.5,0,0.8c-5.8,6.2-14,11.5-24.8,15.7c-1.2,2.7-3,5.6-5.5,8.6
		c-2.7,3.5-5.3,5.7-7.6,6.7c-0.9,0.4-1.4,0.2-1.7-0.6c-0.1-0.4,0.1-0.9,0.6-1.3c3.2-2.2,5.7-5.8,7.5-11c-9.7,3-19.7,4.5-30.1,4.5
		c-13.6,0-25.5-2.9-35.5-8.6c-10.3-5.9-16.7-13.6-19.2-23.3s2.3-18.5,14.3-26.5c11.7-8,25.6-12,41.4-12c20.4,0,38,3.9,52.6,11.7
		c3.7-3.1,6.9-4.8,9.6-5.2c0.3,0.1,0.5,0.3,0.6,0.7c0,0.4-0.1,0.7-0.4,0.9c-2,1.2-4.2,3-6.6,5.4C304.1,26.7,311.1,35.4,313.7,45.9
		L313.7,45.9z M284.6,22.7c-13.6-7.9-30.3-11.8-50.1-11.8c-16.1,0-29.1,3.7-39.2,11.1c-9.4,7-13.2,14.4-11.1,22.5
		c2,8,8.1,14.3,18.4,19.1c9.9,4.6,21.9,7,35.8,7c11.6,0,21.3-1,29.1-3.1c2.2-7.8,4.4-15.7,6.7-23.5C277,35.1,280.5,28.1,284.6,22.7
		L284.6,22.7z M322,81c-0.2-1.5-0.2-3.1,0-4.5V81z"/>
</g>
<g>
	<g>
		<circle class="st1" cx="131.9" cy="85.5" r="1.5"/>
		<circle class="st1" cx="165.8" cy="51.7" r="1.5"/>
		<circle class="st1" cx="131.9" cy="17.8" r="1.5"/>
		<circle class="st1" cx="127.1" cy="18.2" r="1.5"/>
		<circle class="st1" cx="122.4" cy="19.2" r="1.5"/>
		<circle class="st1" cx="117.9" cy="20.9" r="1.5"/>
		<circle class="st1" cx="113.6" cy="23.2" r="1.5"/>
		<circle class="st1" cx="109.8" cy="26.1" r="1.5"/>
		<circle class="st1" cx="122.4" cy="84.1" r="1.5"/>
		<circle class="st1" cx="127.1" cy="85.2" r="1.5"/>
		<circle class="st1" cx="136.7" cy="85.2" r="1.5"/>
		<circle class="st1" cx="141.5" cy="84.1" r="1.5"/>
		<circle class="st1" cx="146" cy="82.4" r="1.5"/>
		<circle class="st1" cx="150.2" cy="80.1" r="1.5"/>
		<circle class="st1" cx="154.1" cy="77.2" r="1.5"/>
		<circle class="st1" cx="157.5" cy="73.8" r="1.5"/>
		<circle class="st1" cx="160.4" cy="70" r="1.5"/>
		<circle class="st1" cx="162.7" cy="65.7" r="1.5"/>
		<circle class="st1" cx="164.4" cy="61.2" r="1.5"/>
		<circle class="st1" cx="165.4" cy="56.5" r="1.5"/>
		<circle class="st1" cx="165.4" cy="46.8" r="1.5"/>
		<circle class="st1" cx="164.4" cy="42.1" r="1.5"/>
		<circle class="st1" cx="162.7" cy="37.6" r="1.5"/>
		<circle class="st1" cx="160.4" cy="33.4" r="1.5"/>
		<circle class="st1" cx="157.5" cy="29.5" r="1.5"/>
		<circle class="st1" cx="154.1" cy="26.1" r="1.5"/>
		<circle class="st1" cx="150.2" cy="23.2" r="1.5"/>
		<circle class="st1" cx="146" cy="20.9" r="1.5"/>
		<circle class="st1" cx="141.5" cy="19.2" r="1.5"/>
		<circle class="st1" cx="136.7" cy="18.2" r="1.5"/>
	</g>
	<g>
		<circle class="st1" cx="45.5" cy="83.6" r="1.3"/>
		<circle class="st1" cx="45.6" cy="24.1" r="1.3"/>
		<circle class="st1" cx="49.1" cy="21.5" r="1.3"/>
		<circle class="st1" cx="52.9" cy="19.6" r="1.3"/>
		<circle class="st1" cx="57.1" cy="18.6" r="1.3"/>
		<circle class="st1" cx="61.4" cy="18.6" r="1.3"/>
		<circle class="st1" cx="65.6" cy="19.6" r="1.3"/>
		<circle class="st1" cx="69.4" cy="21.6" r="1.3"/>
		<circle class="st1" cx="72.8" cy="24.3" r="1.3"/>
		<circle class="st1" cx="57.6" cy="71.2" r="1.3"/>
		<circle class="st1" cx="54.6" cy="74.3" r="1.3"/>
		<circle class="st1" cx="51.6" cy="77.4" r="1.3"/>
		<circle class="st1" cx="48.6" cy="80.5" r="1.3"/>
		<circle class="st1" cx="42" cy="21.5" r="1.3"/>
		<circle class="st1" cx="38.2" cy="19.6" r="1.3"/>
		<circle class="st1" cx="34" cy="18.6" r="1.3"/>
		<circle class="st1" cx="29.7" cy="18.6" r="1.3"/>
		<circle class="st1" cx="25.5" cy="19.6" r="1.3"/>
		<circle class="st1" cx="21.6" cy="21.6" r="1.3"/>
		<circle class="st1" cx="18.3" cy="24.3" r="1.3"/>
		<circle class="st1" cx="15.6" cy="27.6" r="1.3"/>
		<circle class="st1" cx="13.6" cy="31.5" r="1.3"/>
		<circle class="st1" cx="12.5" cy="35.6" r="1.3"/>
		<circle class="st1" cx="12.2" cy="39.9" r="1.3"/>
		<circle class="st1" cx="12.7" cy="44.2" r="1.3"/>
		<circle class="st1" cx="14.1" cy="48.3" r="1.3"/>
		<circle class="st1" cx="16" cy="52.1" r="1.3"/>
		<circle class="st1" cx="18.5" cy="55.7" r="1.3"/>
		<circle class="st1" cx="21.3" cy="58.9" r="1.3"/>
		<circle class="st1" cx="24.4" cy="62" r="1.3"/>
		<circle class="st1" cx="27.4" cy="65.1" r="1.3"/>
		<circle class="st1" cx="30.4" cy="68.2" r="1.3"/>
		<circle class="st1" cx="33.4" cy="71.2" r="1.3"/>
		<circle class="st1" cx="36.5" cy="74.3" r="1.3"/>
		<circle class="st1" cx="39.5" cy="77.4" r="1.3"/>
		<circle class="st1" cx="42.5" cy="80.5" r="1.3"/>
	</g>
	<g>
		<circle class="st1" cx="85.1" cy="83.3" r="1.5"/>
		<circle class="st1" cx="80.2" cy="84.8" r="1.5"/>
		<circle class="st1" cx="75.3" cy="86.3" r="1.5"/>
		<circle class="st1" cx="70.3" cy="87.7" r="1.5"/>
		<circle class="st1" cx="65.3" cy="88.8" r="1.5"/>
		<circle class="st1" cx="64.8" cy="83.7" r="1.5"/>
		<circle class="st1" cx="64.6" cy="78.5" r="1.5"/>
		<circle class="st1" cx="64.5" cy="73.4" r="1.5"/>
		<circle class="st1" cx="64.4" cy="68.3" r="1.5"/>
		<circle class="st1" cx="64.2" cy="63.2" r="1.5"/>
		<circle class="st1" cx="61.3" cy="58.9" r="1.5"/>
		<circle class="st1" cx="58.4" cy="54.7" r="1.5"/>
		<circle class="st1" cx="55.5" cy="50.5" r="1.5"/>
		<circle class="st1" cx="52.6" cy="46.2" r="1.5"/>
		<circle class="st1" cx="50.1" cy="41.8" r="1.5"/>
		<circle class="st1" cx="54.7" cy="39.7" r="1.5"/>
		<circle class="st1" cx="59.6" cy="38" r="1.5"/>
		<circle class="st1" cx="64.4" cy="36.3" r="1.5"/>
		<circle class="st1" cx="69.2" cy="34.6" r="1.5"/>
		<circle class="st1" cx="74" cy="32.8" r="1.5"/>
		<circle class="st1" cx="77.2" cy="28.8" r="1.5"/>
		<circle class="st1" cx="80.3" cy="24.7" r="1.5"/>
		<circle class="st1" cx="83.4" cy="20.6" r="1.5"/>
		<circle class="st1" cx="86.6" cy="16.5" r="1.5"/>
		<circle class="st1" cx="90" cy="12.7" r="1.5"/>
		<circle class="st1" cx="94.6" cy="83.3" r="1.5"/>
		<circle class="st1" cx="99.5" cy="84.8" r="1.5"/>
		<circle class="st1" cx="104.4" cy="86.3" r="1.5"/>
		<circle class="st1" cx="109.4" cy="87.7" r="1.5"/>
		<circle class="st1" cx="114.4" cy="88.8" r="1.5"/>
		<circle class="st1" cx="114.9" cy="83.7" r="1.5"/>
		<circle class="st1" cx="115.1" cy="78.5" r="1.5"/>
		<circle class="st1" cx="115.2" cy="73.4" r="1.5"/>
		<circle class="st1" cx="115.3" cy="68.3" r="1.5"/>
		<circle class="st1" cx="115.5" cy="63.2" r="1.5"/>
		<circle class="st1" cx="118.4" cy="58.9" r="1.5"/>
		<circle class="st1" cx="121.3" cy="54.7" r="1.5"/>
		<circle class="st1" cx="124.2" cy="50.5" r="1.5"/>
		<circle class="st1" cx="127.1" cy="46.2" r="1.5"/>
		<circle class="st1" cx="129.6" cy="41.8" r="1.5"/>
		<circle class="st1" cx="125" cy="39.7" r="1.5"/>
		<circle class="st1" cx="120.1" cy="38" r="1.5"/>
		<circle class="st1" cx="115.3" cy="36.3" r="1.5"/>
		<circle class="st1" cx="110.5" cy="34.6" r="1.5"/>
		<circle class="st1" cx="105.6" cy="32.8" r="1.5"/>
		<circle class="st1" cx="102.5" cy="28.8" r="1.5"/>
		<circle class="st1" cx="99.4" cy="24.7" r="1.5"/>
		<circle class="st1" cx="96.3" cy="20.6" r="1.5"/>
		<circle class="st1" cx="93.1" cy="16.5" r="1.5"/>
		<circle class="st1" cx="90" cy="82.2" r="1.5"/>
	</g>
	<g>
		<circle class="st2" cx="131.9" cy="51.7" r="37.1"/>
		<g>
			<circle class="st1" cx="131.9" cy="85.5" r="1.5"/>
			<circle class="st1" cx="165.8" cy="51.7" r="1.5"/>
			<circle class="st1" cx="131.9" cy="17.8" r="1.5"/>
			<circle class="st1" cx="127.1" cy="18.2" r="1.5"/>
			<circle class="st1" cx="122.4" cy="19.2" r="1.5"/>
			<circle class="st1" cx="117.9" cy="20.9" r="1.5"/>
			<circle class="st1" cx="113.6" cy="23.2" r="1.5"/>
			<circle class="st1" cx="109.8" cy="26.1" r="1.5"/>
			<circle class="st1" cx="122.4" cy="84.1" r="1.5"/>
			<circle class="st1" cx="127.1" cy="85.2" r="1.5"/>
			<circle class="st1" cx="136.7" cy="85.2" r="1.5"/>
			<circle class="st1" cx="141.5" cy="84.1" r="1.5"/>
			<circle class="st1" cx="146" cy="82.4" r="1.5"/>
			<circle class="st1" cx="150.2" cy="80.1" r="1.5"/>
			<circle class="st1" cx="154.1" cy="77.2" r="1.5"/>
			<circle class="st1" cx="157.5" cy="73.8" r="1.5"/>
			<circle class="st1" cx="160.4" cy="70" r="1.5"/>
			<circle class="st1" cx="162.7" cy="65.7" r="1.5"/>
			<circle class="st1" cx="164.4" cy="61.2" r="1.5"/>
			<circle class="st1" cx="165.4" cy="56.5" r="1.5"/>
			<circle class="st1" cx="165.4" cy="46.8" r="1.5"/>
			<circle class="st1" cx="164.4" cy="42.1" r="1.5"/>
			<circle class="st1" cx="162.7" cy="37.6" r="1.5"/>
			<circle class="st1" cx="160.4" cy="33.4" r="1.5"/>
			<circle class="st1" cx="157.5" cy="29.5" r="1.5"/>
			<circle class="st1" cx="154.1" cy="26.1" r="1.5"/>
			<circle class="st1" cx="150.2" cy="23.2" r="1.5"/>
			<circle class="st1" cx="146" cy="20.9" r="1.5"/>
			<circle class="st1" cx="141.5" cy="19.2" r="1.5"/>
			<circle class="st1" cx="136.7" cy="18.2" r="1.5"/>
		</g>
	</g>
	<g>
		<path class="st3" d="M45.6,19.5c3.2-2.4,6.8-4,10.8-4.5c3.7-0.5,7.4,0,10.9,1.3c7.5,2.9,13,9.6,14.7,17.4c1,4.3,0.7,8.8-0.6,13.1
			c-1.6,5.2-4.6,9.9-8.3,13.8l0,0L45.6,88.8L18,60.6c-3.7-4-6.7-8.6-8.3-13.8c-1.3-4.3-1.5-8.7-0.6-13.1c1.7-7.8,7.3-14.5,14.7-17.4
			c3.5-1.4,7.2-1.8,10.9-1.3C38.7,15.5,42.4,17.2,45.6,19.5z"/>
		<g>
			<circle class="st1" cx="45.5" cy="83.6" r="1.3"/>
			<circle class="st1" cx="45.6" cy="24.1" r="1.3"/>
			<circle class="st1" cx="49.1" cy="21.5" r="1.3"/>
			<circle class="st1" cx="52.9" cy="19.6" r="1.3"/>
			<circle class="st1" cx="57.1" cy="18.6" r="1.3"/>
			<circle class="st1" cx="61.4" cy="18.6" r="1.3"/>
			<circle class="st1" cx="65.6" cy="19.6" r="1.3"/>
			<circle class="st1" cx="69.4" cy="21.6" r="1.3"/>
			<circle class="st1" cx="72.8" cy="24.3" r="1.3"/>
			<circle class="st1" cx="57.6" cy="71.2" r="1.3"/>
			<circle class="st1" cx="54.6" cy="74.3" r="1.3"/>
			<circle class="st1" cx="51.6" cy="77.4" r="1.3"/>
			<circle class="st1" cx="48.6" cy="80.5" r="1.3"/>
			<circle class="st1" cx="42" cy="21.5" r="1.3"/>
			<circle class="st1" cx="38.2" cy="19.6" r="1.3"/>
			<circle class="st1" cx="34" cy="18.6" r="1.3"/>
			<circle class="st1" cx="29.7" cy="18.6" r="1.3"/>
			<circle class="st1" cx="25.5" cy="19.6" r="1.3"/>
			<circle class="st1" cx="21.6" cy="21.6" r="1.3"/>
			<circle class="st1" cx="18.3" cy="24.3" r="1.3"/>
			<circle class="st1" cx="15.6" cy="27.6" r="1.3"/>
			<circle class="st1" cx="13.6" cy="31.5" r="1.3"/>
			<circle class="st1" cx="12.5" cy="35.6" r="1.3"/>
			<circle class="st1" cx="12.2" cy="39.9" r="1.3"/>
			<circle class="st1" cx="12.7" cy="44.2" r="1.3"/>
			<circle class="st1" cx="14.1" cy="48.3" r="1.3"/>
			<circle class="st1" cx="16" cy="52.1" r="1.3"/>
			<circle class="st1" cx="18.5" cy="55.7" r="1.3"/>
			<circle class="st1" cx="21.3" cy="58.9" r="1.3"/>
			<circle class="st1" cx="24.4" cy="62" r="1.3"/>
			<circle class="st1" cx="27.4" cy="65.1" r="1.3"/>
			<circle class="st1" cx="30.4" cy="68.2" r="1.3"/>
			<circle class="st1" cx="33.4" cy="71.2" r="1.3"/>
			<circle class="st1" cx="36.5" cy="74.3" r="1.3"/>
			<circle class="st1" cx="39.5" cy="77.4" r="1.3"/>
			<circle class="st1" cx="42.5" cy="80.5" r="1.3"/>
		</g>
	</g>
	<g>
		<path class="st4" d="M108.6,29.1c33.4,12.5,31.1,5.6,11.5,35.4c-1.6,35.6,4.2,31.3-30.1,21.9c-34.4,9.5-28.5,13.7-30.1-21.9
			C40.3,34.8,38,41.7,71.4,29.1C93.6,1.3,86.4,1.3,108.6,29.1z"/>
		<g>
			<circle class="st1" cx="85.1" cy="83.3" r="1.5"/>
			<circle class="st1" cx="80.2" cy="84.8" r="1.5"/>
			<circle class="st1" cx="75.3" cy="86.3" r="1.5"/>
			<circle class="st1" cx="70.3" cy="87.7" r="1.5"/>
			<circle class="st1" cx="65.3" cy="88.8" r="1.5"/>
			<circle class="st1" cx="64.8" cy="83.7" r="1.5"/>
			<circle class="st1" cx="64.6" cy="78.5" r="1.5"/>
			<circle class="st1" cx="64.5" cy="73.4" r="1.5"/>
			<circle class="st1" cx="64.4" cy="68.3" r="1.5"/>
			<circle class="st1" cx="64.2" cy="63.2" r="1.5"/>
			<circle class="st1" cx="61.3" cy="58.9" r="1.5"/>
			<circle class="st1" cx="58.4" cy="54.7" r="1.5"/>
			<circle class="st1" cx="55.5" cy="50.5" r="1.5"/>
			<circle class="st1" cx="52.6" cy="46.2" r="1.5"/>
			<circle class="st1" cx="50.1" cy="41.8" r="1.5"/>
			<circle class="st1" cx="54.7" cy="39.7" r="1.5"/>
			<circle class="st1" cx="59.6" cy="38" r="1.5"/>
			<circle class="st1" cx="64.4" cy="36.3" r="1.5"/>
			<circle class="st1" cx="69.2" cy="34.6" r="1.5"/>
			<circle class="st1" cx="74" cy="32.8" r="1.5"/>
			<circle class="st1" cx="77.2" cy="28.8" r="1.5"/>
			<circle class="st1" cx="80.3" cy="24.7" r="1.5"/>
			<circle class="st1" cx="83.4" cy="20.6" r="1.5"/>
			<circle class="st1" cx="86.6" cy="16.5" r="1.5"/>
			<circle class="st1" cx="90" cy="12.7" r="1.5"/>
			<circle class="st1" cx="94.6" cy="83.3" r="1.5"/>
			<circle class="st1" cx="99.5" cy="84.8" r="1.5"/>
			<circle class="st1" cx="104.4" cy="86.3" r="1.5"/>
			<circle class="st1" cx="109.4" cy="87.7" r="1.5"/>
			<circle class="st1" cx="114.4" cy="88.8" r="1.5"/>
			<circle class="st1" cx="114.9" cy="83.7" r="1.5"/>
			<circle class="st1" cx="115.1" cy="78.5" r="1.5"/>
			<circle class="st1" cx="115.2" cy="73.4" r="1.5"/>
			<circle class="st1" cx="115.3" cy="68.3" r="1.5"/>
			<circle class="st1" cx="115.5" cy="63.2" r="1.5"/>
			<circle class="st1" cx="118.4" cy="58.9" r="1.5"/>
			<circle class="st1" cx="121.3" cy="54.7" r="1.5"/>
			<circle class="st1" cx="124.2" cy="50.5" r="1.5"/>
			<circle class="st1" cx="127.1" cy="46.2" r="1.5"/>
			<circle class="st1" cx="129.6" cy="41.8" r="1.5"/>
			<circle class="st1" cx="125" cy="39.7" r="1.5"/>
			<circle class="st1" cx="120.1" cy="38" r="1.5"/>
			<circle class="st1" cx="115.3" cy="36.3" r="1.5"/>
			<circle class="st1" cx="110.5" cy="34.6" r="1.5"/>
			<circle class="st1" cx="105.6" cy="32.8" r="1.5"/>
			<circle class="st1" cx="102.5" cy="28.8" r="1.5"/>
			<circle class="st1" cx="99.4" cy="24.7" r="1.5"/>
			<circle class="st1" cx="96.3" cy="20.6" r="1.5"/>
			<circle class="st1" cx="93.1" cy="16.5" r="1.5"/>
			<circle class="st1" cx="90" cy="82.2" r="1.5"/>
		</g>
	</g>
</g>
</svg>
