<?xml version="1.0" encoding="utf-8"?>
<!-- Generator: Adobe Illustrator 21.1.0, SVG Export Plug-In . SVG Version: 6.00 Build 0)  -->
<svg version="1.1" id="Layer_1" xmlns="http://www.w3.org/2000/svg" xmlns:xlink="http://www.w3.org/1999/xlink" x="0px" y="0px"
	 viewBox="0 0 100 100" style="enable-background:new 0 0 100 100;" xml:space="preserve">
<style type="text/css">
	.st0{fill:#FFF;}
	.st1{fill:#000;}
</style>
<circle class="st0" cx="50" cy="50" r="45"/>
<g>
	<path class="st1" d="M58.7,30.5H41.3c-5.9,0-10.8,4.8-10.8,10.8v17.5c0,5.9,4.8,10.8,10.8,10.8h17.5c5.9,0,10.8-4.8,10.8-10.8V41.3
		C69.5,35.3,64.7,30.5,58.7,30.5z M66,58.7c0,4-3.3,7.3-7.3,7.3H41.3c-4,0-7.3-3.3-7.3-7.3V41.3c0-4,3.3-7.3,7.3-7.3h17.5
		c4,0,7.3,3.3,7.3,7.3L66,58.7L66,58.7z"/>
	<path class="st1" d="M50,40c-5.5,0-10,4.5-10,10c0,5.5,4.5,10,10,10s10-4.5,10-10C60,44.5,55.5,40,50,40z M50,56.6
		c-3.6,0-6.6-3-6.6-6.6c0-3.6,3-6.6,6.6-6.6s6.6,3,6.6,6.6C56.6,53.6,53.6,56.6,50,56.6z"/>
	<path class="st1" d="M60.5,37c-0.7,0-1.3,0.3-1.8,0.7c-0.5,0.5-0.7,1.1-0.7,1.8c0,0.7,0.3,1.3,0.7,1.8c0.5,0.5,1.1,0.7,1.8,0.7
		c0.7,0,1.3-0.3,1.8-0.7c0.5-0.5,0.7-1.1,0.7-1.8c0-0.7-0.3-1.3-0.7-1.8C61.8,37.3,61.1,37,60.5,37z"/>
</g>
</svg>
