<?xml version="1.0" encoding="utf-8"?>
<!-- Generator: Adobe Illustrator 21.1.0, SVG Export Plug-In . SVG Version: 6.00 Build 0)  -->
<svg version="1.1" id="Capa_1" xmlns="http://www.w3.org/2000/svg" xmlns:xlink="http://www.w3.org/1999/xlink" x="0px" y="0px"
	 viewBox="0 0 391.4 489" style="enable-background:new 0 0 391.4 489;" xml:space="preserve">
<style type="text/css">
	.st0{fill:#EB7E87;}
</style>
<g>
	<path class="st0" d="M391.3,422.7l-28-315.3c-0.6-7-6.5-12.3-13.4-12.3h-57.6C291.5,42.5,248.5,0,195.7,0S99.9,42.5,99.1,95.1H41.5
		c-7,0-12.8,5.3-13.4,12.3l-28,315.3c0,0.4-0.1,0.8-0.1,1.2C0,459.8,32.9,489,73.4,489H318c40.5,0,73.4-29.2,73.4-65.1
		C391.4,423.5,391.4,423.1,391.3,422.7z M195.7,27c37.9,0,68.8,30.4,69.6,68.1H126.1C126.9,57.4,157.8,27,195.7,27z M318,462H73.4
		c-25.4,0-46-16.8-46.4-37.5l26.8-302.3H99v41c0,7.5,6,13.5,13.5,13.5s13.5-6,13.5-13.5v-41h139.3v41c0,7.5,6,13.5,13.5,13.5
		s13.5-6,13.5-13.5v-41h45.2l26.9,302.3C364,445.2,343.3,462,318,462z"/>
</g>
</svg>
